<svg xmlns="http://www.w3.org/2000/svg" viewBox="0 0 400 300" fill="none">
  <defs>
    <radialGradient id="lens-grad" cx="45%" cy="42%">
      <stop offset="0%" stop-color="#555"/>
      <stop offset="60%" stop-color="#1e2024"/>
      <stop offset="100%" stop-color="#111"/>
    </radialGradient>
    <linearGradient id="display-grad" x1="0" y1="0" x2="1" y2="1">
      <stop offset="0%" stop-color="#1a1a3a"/>
      <stop offset="100%" stop-color="#2a2040"/>
    </linearGradient>
  </defs>
  <polygon points="150.0,87.5 105.0,61.5 105.0,166.5 150.0,192.5" fill="#35383d" stroke="#5a5e64" stroke-width="1.2"/>
  <polygon points="150.0,87.5 300.0,87.5 255.0,61.5 105.0,61.5" fill="#55595f" stroke="#5a5e64" stroke-width="1.2"/>
  <polygon points="150.0,87.5 300.0,87.5 300.0,192.5 150.0,192.5" fill="#44484e" stroke="#5a5e64" stroke-width="1.2"/>
  <polygon points="292.0,87.5 258.0,87.5 244.5,67.7 278.5,67.7" fill="#3a3d42" stroke="#5a5e64" stroke-width="0.8"/>
  <circle cx="225.0" cy="142.0" r="28" fill="#2a2d32" stroke="#5a5e64" stroke-width="1"/>
  <circle cx="225.0" cy="142.0" r="22" fill="#3a3e44" stroke="#2a2d32" stroke-width="1.5"/>
  <circle cx="225.0" cy="142.0" r="15" fill="url(#lens-grad)"/>
  <circle cx="225.0" cy="142.0" r="8" fill="#0a0a0a" opacity="0.8"/>
  <polygon points="185.4,77.6 230.4,77.6 219.6,71.4 174.6,71.4" fill="#555" stroke="#666" stroke-width="0.5"/>

  <!-- NiYien A1 device -->
  <polygon points="118.5,103.4 118.5,140.2 136.5,150.6 136.5,113.8" fill="#9a9da2" stroke="#777" stroke-width="1.5" stroke-linejoin="round"/>
  <polygon points="119.8,107.0 119.8,138.2 135.2,147.0 135.2,115.8" fill="#2a2a2e" stroke="#444" stroke-width="0.5"/>
  <polygon points="121.2,123.4 121.2,135.4 133.8,142.7 133.8,130.6" fill="url(#display-grad)" stroke="#333" stroke-width="0.5" opacity="0.9"/>
  <circle cx="123.0" cy="112.3" r="3" fill="#444" stroke="#555" stroke-width="0.5"/>
  <circle cx="127.5" cy="114.9" r="3" fill="#444" stroke="#555" stroke-width="0.5"/>
  <circle cx="132.0" cy="117.5" r="3" fill="#444" stroke="#555" stroke-width="0.5"/>
  <circle cx="120.3" cy="135.4" r="2.5" fill="#4ADE80"/>
  <circle cx="120.3" cy="135.4" r="5" fill="#4ADE80" opacity="0.2"/>
  <text x="225" y="214" text-anchor="middle" font-family="sans-serif" font-size="11" fill="rgba(255,255,255,0.35)">&#x25B8; Front (Lens)</text>
</svg>
