<svg xmlns="http://www.w3.org/2000/svg" viewBox="0 0 400 300" fill="none">
  <defs>
    <radialGradient id="lens-grad" cx="45%" cy="42%">
      <stop offset="0%" stop-color="#555"/>
      <stop offset="60%" stop-color="#1e2024"/>
      <stop offset="100%" stop-color="#111"/>
    </radialGradient>
    <linearGradient id="display-grad" x1="0" y1="0" x2="1" y2="1">
      <stop offset="0%" stop-color="#1a1a3a"/>
      <stop offset="100%" stop-color="#2a2040"/>
    </linearGradient>
  </defs>
  <polygon points="250.0,87.5 295.0,61.5 295.0,166.5 250.0,192.5" fill="#35383d" stroke="#5a5e64" stroke-width="1.2"/>
  <polygon points="100.0,87.5 250.0,87.5 295.0,61.5 145.0,61.5" fill="#55595f" stroke="#5a5e64" stroke-width="1.2"/>
  <polygon points="100.0,87.5 250.0,87.5 250.0,192.5 100.0,192.5" fill="#44484e" stroke="#5a5e64" stroke-width="1.2"/>
  <polygon points="108.0,87.5 142.0,87.5 155.5,67.7 121.5,67.7" fill="#3a3d42" stroke="#5a5e64" stroke-width="0.8"/>
  <circle cx="175.0" cy="142.0" r="28" fill="#2a2d32" stroke="#5a5e64" stroke-width="1"/>
  <circle cx="175.0" cy="142.0" r="22" fill="#3a3e44" stroke="#2a2d32" stroke-width="1.5"/>
  <circle cx="175.0" cy="142.0" r="15" fill="url(#lens-grad)"/>
  <circle cx="175.0" cy="142.0" r="8" fill="#0a0a0a" opacity="0.8"/>
  <polygon points="169.6,77.6 214.6,77.6 225.4,71.4 180.4,71.4" fill="#555" stroke="#666" stroke-width="0.5"/>

  <!-- NiYien A1 device -->
  <polygon points="281.5,103.4 281.5,140.2 263.5,150.6 263.5,113.8" fill="#9a9da2" stroke="#777" stroke-width="1.5" stroke-linejoin="round"/>
  <polygon points="280.1,107.0 280.1,138.2 264.9,147.0 264.9,115.8" fill="#2a2a2e" stroke="#444" stroke-width="0.5"/>
  <polygon points="278.8,123.4 278.8,135.4 266.2,142.7 266.2,130.6" fill="url(#display-grad)" stroke="#333" stroke-width="0.5" opacity="0.9"/>
  <circle cx="277.0" cy="112.3" r="3" fill="#444" stroke="#555" stroke-width="0.5"/>
  <circle cx="272.5" cy="114.9" r="3" fill="#444" stroke="#555" stroke-width="0.5"/>
  <circle cx="268.0" cy="117.5" r="3" fill="#444" stroke="#555" stroke-width="0.5"/>
  <circle cx="279.7" cy="135.4" r="2.5" fill="#4ADE80"/>
  <circle cx="279.7" cy="135.4" r="5" fill="#4ADE80" opacity="0.2"/>
  <text x="175" y="214" text-anchor="middle" font-family="sans-serif" font-size="11" fill="rgba(255,255,255,0.35)">&#x25B8; Front (Lens)</text>
</svg>
