<svg xmlns="http://www.w3.org/2000/svg" viewBox="0 0 400 300" fill="none">
  <defs>
    <radialGradient id="lens-grad" cx="45%" cy="42%">
      <stop offset="0%" stop-color="#555"/>
      <stop offset="60%" stop-color="#1e2024"/>
      <stop offset="100%" stop-color="#111"/>
    </radialGradient>
    <linearGradient id="display-grad" x1="0" y1="0" x2="1" y2="1">
      <stop offset="0%" stop-color="#1a1a3a"/>
      <stop offset="100%" stop-color="#2a2040"/>
    </linearGradient>
  </defs>
  <polygon points="250.0,87.5 295.0,61.5 295.0,166.5 250.0,192.5" fill="#35383d" stroke="#5a5e64" stroke-width="1.2"/>
  <polygon points="100.0,87.5 250.0,87.5 295.0,61.5 145.0,61.5" fill="#55595f" stroke="#5a5e64" stroke-width="1.2"/>
  <polygon points="100.0,87.5 250.0,87.5 250.0,192.5 100.0,192.5" fill="#44484e" stroke="#5a5e64" stroke-width="1.2"/>
  <polygon points="108.0,87.5 142.0,87.5 155.5,67.7 121.5,67.7" fill="#3a3d42" stroke="#5a5e64" stroke-width="0.8"/>
  <circle cx="175.0" cy="142.0" r="28" fill="#2a2d32" stroke="#5a5e64" stroke-width="1"/>
  <circle cx="175.0" cy="142.0" r="22" fill="#3a3e44" stroke="#2a2d32" stroke-width="1.5"/>
  <circle cx="175.0" cy="142.0" r="15" fill="url(#lens-grad)"/>
  <circle cx="175.0" cy="142.0" r="8" fill="#0a0a0a" opacity="0.8"/>

  <!-- NiYien A1 device -->
  <polygon points="229.8,79.7 247.8,69.3 165.2,69.3 147.2,79.7" fill="#9a9da2" stroke="#777" stroke-width="1.5" stroke-linejoin="round"/>
  <polygon points="224.9,78.9 240.2,70.1 170.1,70.1 154.8,78.9" fill="#2a2a2e" stroke="#444" stroke-width="0.5"/>
  <polygon points="229.8,74.5 236.1,70.9 171.6,70.9 165.2,74.5" fill="url(#display-grad)" stroke="#333" stroke-width="0.5" opacity="0.9"/>
  <circle cx="211.8" cy="78.1" r="3" fill="#444" stroke="#555" stroke-width="0.5"/>
  <circle cx="191.2" cy="78.1" r="3" fill="#444" stroke="#555" stroke-width="0.5"/>
  <circle cx="170.6" cy="78.1" r="3" fill="#444" stroke="#555" stroke-width="0.5"/>
  <circle cx="238.2" cy="71.4" r="2.5" fill="#4ADE80"/>
  <circle cx="238.2" cy="71.4" r="5" fill="#4ADE80" opacity="0.2"/>
  <text x="175" y="214" text-anchor="middle" font-family="sans-serif" font-size="11" fill="rgba(255,255,255,0.35)">&#x25B8; Front (Lens)</text>
</svg>
